<mxfile host="app.diagrams.net" agent="Mozilla/5.0 (Windows NT 10.0; Win64; x64) AppleWebKit/537.36 (KHTML, like Gecko) Chrome/141.0.0.0 Safari/537.36" version="28.2.7">
  <diagram id="xR7kt0VEdy6GJTey97oo" name="PÃ¡gina-1">
    <mxGraphModel dx="1426" dy="743" grid="1" gridSize="10" guides="1" tooltips="1" connect="1" arrows="1" fold="1" page="1" pageScale="1" pageWidth="827" pageHeight="1169" math="0" shadow="0">
      <root>
        <mxCell id="0" />
        <mxCell id="1" parent="0" />
        <mxCell id="e1UbRBEiO8uX84VKru8T-62" value="VENTAS" style="swimlane;childLayout=stackLayout;horizontal=1;startSize=50;horizontalStack=0;rounded=1;fontSize=14;fontStyle=0;strokeWidth=2;resizeParent=0;resizeLast=1;shadow=0;dashed=0;align=center;arcSize=4;whiteSpace=wrap;html=1;" vertex="1" parent="1">
          <mxGeometry x="330" y="220" width="160" height="210" as="geometry" />
        </mxCell>
        <mxCell id="e1UbRBEiO8uX84VKru8T-63" value="PK id_ventas&lt;br&gt;PK id_productos&lt;br&gt;PK id_tiendas&lt;div&gt;PK id_proveedor&lt;/div&gt;&lt;div&gt;PK id_promocion&lt;/div&gt;&lt;div&gt;PK id_fecha&lt;/div&gt;&lt;div&gt;+ cantidad&lt;/div&gt;&lt;div&gt;+ total_venta&lt;br&gt;&lt;div&gt;&lt;br&gt;&lt;/div&gt;&lt;/div&gt;" style="align=left;strokeColor=none;fillColor=none;spacingLeft=4;spacingRight=4;fontSize=12;verticalAlign=top;resizable=0;rotatable=0;part=1;html=1;whiteSpace=wrap;" vertex="1" parent="e1UbRBEiO8uX84VKru8T-62">
          <mxGeometry y="50" width="160" height="160" as="geometry" />
        </mxCell>
        <mxCell id="e1UbRBEiO8uX84VKru8T-69" value="PRODUCTO" style="swimlane;childLayout=stackLayout;horizontal=1;startSize=50;horizontalStack=0;rounded=1;fontSize=14;fontStyle=0;strokeWidth=2;resizeParent=0;resizeLast=1;shadow=0;dashed=0;align=center;arcSize=4;whiteSpace=wrap;html=1;" vertex="1" parent="1">
          <mxGeometry x="580" y="60" width="160" height="160" as="geometry" />
        </mxCell>
        <mxCell id="e1UbRBEiO8uX84VKru8T-70" value="+ id_producto&lt;br&gt;+ nombre_producto&lt;br&gt;+ categoria&lt;div&gt;+ marca&lt;/div&gt;&lt;div&gt;+ precio&lt;/div&gt;&lt;div&gt;&lt;br&gt;&lt;/div&gt;" style="align=left;strokeColor=none;fillColor=none;spacingLeft=4;spacingRight=4;fontSize=12;verticalAlign=top;resizable=0;rotatable=0;part=1;html=1;whiteSpace=wrap;" vertex="1" parent="e1UbRBEiO8uX84VKru8T-69">
          <mxGeometry y="50" width="160" height="110" as="geometry" />
        </mxCell>
      </root>
    </mxGraphModel>
  </diagram>
</mxfile>
